<svg id="Layer_1" data-name="Layer 1" xmlns="http://www.w3.org/2000/svg" viewBox="0 0 512 512"><defs><style>.cls-1{fill:#2b374f;}</style></defs><title>mgic-ball-outline</title><path class="cls-1" d="M236.8,185.6A12.8,12.8,0,0,1,224,172.8v-6.4h-6.4a12.8,12.8,0,1,1,0-25.6H224v-6.4a12.8,12.8,0,1,1,25.6,0v6.4H256a12.8,12.8,0,1,1,0,25.6h-6.4v6.4A12.8,12.8,0,0,1,236.8,185.6Z"/><path class="cls-1" d="M288,256a12.8,12.8,0,0,1-12.8-12.8v-6.4h-6.4a12.8,12.8,0,1,1,0-25.6h6.4v-6.4a12.8,12.8,0,1,1,25.6,0v6.4h6.4a12.8,12.8,0,1,1,0,25.6h-6.4v6.4A12.8,12.8,0,0,1,288,256Z"/><circle class="cls-1" cx="172.8" cy="217.6" r="12.8"/><circle class="cls-1" cx="217.6" cy="256" r="12.8"/><circle class="cls-1" cx="339.2" cy="140.8" r="12.8"/><path class="cls-1" d="M396.8,405.13V368.45A210.69,210.69,0,0,0,467.2,211.2C467.2,94.74,372.46,0,256,0S44.8,94.74,44.8,211.2a210.69,210.69,0,0,0,70.4,157.25v36.68A96.16,96.16,0,0,0,38.4,499.2V512H473.6V499.2A96.16,96.16,0,0,0,396.8,405.13Zm-256-27.53H371.2v25.6H140.8ZM70.4,211.2C70.4,108.86,153.66,25.6,256,25.6s185.6,83.26,185.6,185.6A185.23,185.23,0,0,1,376.77,352H135.23A185.23,185.23,0,0,1,70.4,211.2ZM65.17,486.4a70.51,70.51,0,0,1,69.23-57.6H377.6a70.51,70.51,0,0,1,69.23,57.6Z"/></svg>